<?xml version="1.0" encoding="UTF-8"?>
<svg version="1.1" xmlns="http://www.w3.org/2000/svg" width="500" height="500">
<path d="M0 0 C165 0 330 0 500 0 C500 165 500 330 500 500 C335 500 170 500 0 500 C0 335 0 170 0 0 Z " fill="#FEFEFE" transform="translate(0,0)"/>
<path d="M0 0 C63.69 0 127.38 0 193 0 C193 18.15 193 36.3 193 55 C129.31 55 65.62 55 0 55 C0 36.85 0 18.7 0 0 Z " fill="#FFB103" transform="translate(33,315)"/>
<path d="M0 0 C21.78 0 43.56 0 66 0 C66 12.93685327 65.96042233 25.86285686 65.78125 38.796875 C65.75871445 40.49464772 65.7362967 42.19242202 65.71398926 43.89019775 C65.65596911 48.28267001 65.59638765 52.67511963 65.53643799 57.06756592 C65.47513887 61.5801872 65.41537573 66.09282881 65.35546875 70.60546875 C65.23845032 79.40366612 65.11963362 88.2018378 65 97 C58.07 97 51.14 97 44 97 C43.34 95.02 42.68 93.04 42 91 C37.8115248 88.95993197 33.32498223 88.47748566 28.73828125 87.81640625 C27.35866345 87.60912629 25.97910787 87.40143187 24.59960938 87.19335938 C22.44753915 86.87472582 20.29507275 86.56001319 18.14135742 86.25268555 C16.04688097 85.95150502 13.95516392 85.63503613 11.86328125 85.31640625 C9.99603394 85.04485718 9.99603394 85.04485718 8.09106445 84.76782227 C4.85481721 83.96393651 3.97976117 83.56043638 2 81 C1.61231995 78.98901367 1.61231995 78.98901367 1.59594727 76.66796875 C1.58326309 75.79696533 1.57057892 74.92596191 1.55751038 74.02856445 C1.56044601 73.09101318 1.56338165 72.15346191 1.56640625 71.1875 C1.5611644 70.22223389 1.55592255 69.25696777 1.55052185 68.26245117 C1.54409808 66.22152672 1.54544323 64.18056525 1.55395508 62.13964844 C1.56246815 59.01170176 1.53370335 55.8855788 1.50195312 52.7578125 C1.50034116 50.77604222 1.50091854 48.79426869 1.50390625 46.8125 C1.49267227 45.87494873 1.48143829 44.93739746 1.46986389 43.97143555 C1.53869705 37.58040806 1.53869705 37.58040806 3.53466797 35.0690918 C6.95812307 33.58450971 10.4063169 32.26917133 13.94140625 31.08203125 C14.70549301 30.81992355 15.46957977 30.55781586 16.25682068 30.2877655 C17.86688265 29.73726082 19.47816662 29.19031879 21.09057617 28.64672852 C23.56030994 27.8132391 26.02543554 26.96709822 28.49023438 26.11914062 C30.05703493 25.58518355 31.62408406 25.05195521 33.19140625 24.51953125 C33.92895645 24.26645706 34.66650665 24.01338287 35.42640686 23.75263977 C38.40606086 22.75348651 40.83459437 22 44 22 C44 21.34 44 20.68 44 20 C29.48 20 14.96 20 0 20 C0 13.4 0 6.8 0 0 Z " fill="#798A37" transform="translate(277,274)"/>
<path d="M0 0 C28.38 0 56.76 0 86 0 C86 25.74 86 51.48 86 78 C79.4 78 72.8 78 66 78 C66 71.07 66 64.14 66 57 C63.69 57 61.38 57 59 57 C59.0928125 58.5778125 59.0928125 58.5778125 59.1875 60.1875 C58.93710349 65.27889573 57.31286408 67.52302791 54 71.25 C48.71338087 75.87579173 39.56196678 74.30452222 32.86791992 74.35009766 C31.08621147 74.36665055 29.30456924 74.39393208 27.52319336 74.43212891 C24.9461037 74.48705714 22.37056588 74.50879393 19.79296875 74.5234375 C19.00214401 74.54610687 18.21131927 74.56877625 17.39653015 74.59213257 C13.34795508 74.57676115 10.76240679 74.23164198 7.53027344 71.68066406 C1.56471389 65.36053247 2.22796724 54.87262645 1.4375 46.625 C1.24897461 44.73007813 1.24897461 44.73007813 1.05664062 42.796875 C0.6994104 39.19838834 0.34942687 35.59925119 0 32 C-0.33107668 28.66643604 -0.66540405 25.33321303 -1 22 C3.95 22 8.9 22 14 22 C14.19335938 24.28679687 14.38671875 26.57359375 14.5859375 28.9296875 C14.77908639 31.14066048 14.97532872 33.35133848 15.171875 35.56201172 C15.30695251 37.10014195 15.43880534 38.63855887 15.56738281 40.17724609 C15.75261635 42.38722472 15.94937242 44.59591726 16.1484375 46.8046875 C16.23138565 47.83914505 16.23138565 47.83914505 16.31600952 48.89450073 C16.62225233 52.88429929 16.62225233 52.88429929 19 56 C23.29453207 56.4596469 27.62122818 56.32399779 31.9375 56.3125 C33.14341797 56.32861328 34.34933594 56.34472656 35.59179688 56.36132812 C36.74615234 56.36197266 37.90050781 56.36261719 39.08984375 56.36328125 C40.68107056 56.36775269 40.68107056 56.36775269 42.30444336 56.37231445 C44.9821027 56.19639214 44.9821027 56.19639214 46.84448242 54.80566406 C48.40878655 52.36121164 48.38797032 50.6387729 48.3984375 47.74609375 C48.40230469 46.72708984 48.40617187 45.70808594 48.41015625 44.65820312 C48.39855469 43.59537109 48.38695312 42.53253906 48.375 41.4375 C48.38660156 40.37080078 48.39820313 39.30410156 48.41015625 38.20507812 C48.40435547 36.67850586 48.40435547 36.67850586 48.3984375 35.12109375 C48.39505371 34.1870874 48.39166992 33.25308105 48.38818359 32.29077148 C48.26008301 31.53481689 48.13198242 30.7788623 48 30 C44.71737969 27.81158646 43.68209102 27.75145335 39.875 27.8125 C38.54082031 27.82216797 38.54082031 27.82216797 37.1796875 27.83203125 C35.02263471 27.76046952 35.02263471 27.76046952 34 29 C33.76636119 30.84891946 33.58696365 32.70488031 33.4375 34.5625 C33.35371094 35.57441406 33.26992187 36.58632812 33.18359375 37.62890625 C33.12300781 38.41136719 33.06242187 39.19382813 33 40 C34.65 40 36.3 40 38 40 C38 37.03 38 34.06 38 31 C39.65 31 41.3 31 43 31 C43.05807043 34.10408807 43.09361914 37.2080364 43.125 40.3125 C43.14175781 41.19357422 43.15851563 42.07464844 43.17578125 42.98242188 C43.18544922 44.25375977 43.18544922 44.25375977 43.1953125 45.55078125 C43.21102295 46.72120972 43.21102295 46.72120972 43.22705078 47.9152832 C43 50 43 50 41 53 C38.08285199 53.27570606 35.4113174 53.3722561 32.5 53.3125 C31.32244141 53.31733398 31.32244141 53.31733398 30.12109375 53.32226562 C24.26703869 53.26703869 24.26703869 53.26703869 22 51 C21.74121094 48.05078125 21.74121094 48.05078125 21.734375 44.3125 C21.73246155 43.65419189 21.7305481 42.99588379 21.72857666 42.31762695 C21.7272155 40.9256146 21.73090717 39.53358953 21.73925781 38.14160156 C21.749959 36.00817411 21.73936094 33.87558869 21.7265625 31.7421875 C21.72788411 30.39062314 21.73044653 29.0390593 21.734375 27.6875 C21.73663086 26.45386719 21.73888672 25.22023437 21.74121094 23.94921875 C22 21 22 21 24 19 C26.48566543 18.80051443 28.8575075 18.72010257 31.34375 18.734375 C32.06864624 18.73246155 32.79354248 18.7305481 33.54040527 18.72857666 C35.07365262 18.72721513 36.6069115 18.73090936 38.14013672 18.73925781 C40.49082259 18.74995822 42.84074423 18.73936192 45.19140625 18.7265625 C46.67968919 18.7278841 48.16797166 18.73044651 49.65625 18.734375 C50.36148804 18.73032654 51.06672607 18.72627808 51.79333496 18.72210693 C56.77007514 18.77007514 56.77007514 18.77007514 59 21 C59.22705078 23.24658203 59.22705078 23.24658203 59.1953125 26.0078125 C59.18886719 26.99394531 59.18242188 27.98007813 59.17578125 28.99609375 C59.15902344 30.02863281 59.14226562 31.06117188 59.125 32.125 C59.11597656 33.16527344 59.10695312 34.20554688 59.09765625 35.27734375 C59.07403747 37.85179092 59.04110149 40.42578212 59 43 C61.31 43 63.62 43 66 43 C66 33.76 66 24.52 66 15 C44.22 15 22.44 15 0 15 C0 10.05 0 5.1 0 0 Z " fill="#798A37" transform="translate(34,137)"/>
<path d="M0 0 C27.72 0 55.44 0 84 0 C84 5.28 84 10.56 84 16 C69.81 16 55.62 16 41 16 C41 16.66 41 17.32 41 18 C49.54215028 19.31417697 57.86916128 20.25233549 66 17 C71.94 17 77.88 17 84 17 C84.33 37.13 84.66 57.26 85 78 C79.39 78 73.78 78 68 78 C66.8584378 75.7168756 66.84665628 74.36520695 66.79467773 71.82568359 C66.7647599 70.53457169 66.7647599 70.53457169 66.73423767 69.21737671 C66.71752518 68.28712677 66.70081268 67.35687683 66.68359375 66.3984375 C66.66281265 65.44683746 66.64203156 64.49523743 66.62062073 63.51480103 C66.55511867 60.46827568 66.4962372 57.42166257 66.4375 54.375 C66.39431541 52.31249084 66.35070114 50.24999063 66.30664062 48.1875 C66.1994366 43.12509046 66.09817098 38.06259245 66 33 C64.69804687 32.95101562 63.39609375 32.90203125 62.0546875 32.8515625 C60.32810529 32.77649371 58.60154378 32.70094767 56.875 32.625 C56.0190625 32.5940625 55.163125 32.563125 54.28125 32.53125 C49.5124128 32.31114982 45.48423193 31.80839517 41 30 C41 31.65 41 33.3 41 35 C46.94 35 52.88 35 59 35 C59.11539834 39.00304035 59.21472797 43.00179613 59.2746582 47.00561523 C59.29965918 48.36453907 59.33367278 49.72333039 59.37719727 51.08178711 C59.77453157 63.81050851 59.77453157 63.81050851 56.79296875 68.24609375 C50.32060958 74.62793041 44.46688604 74.55890483 35.81762695 74.5559082 C33.70272966 74.56245287 31.59257943 74.61691766 29.47851562 74.67382812 C22.50520879 74.76403708 16.80023228 74.6927226 11.49047852 69.74438477 C6.61747565 64.04125529 5.3035813 59.05137267 4.75 51.625 C4.67410645 50.76100586 4.59821289 49.89701172 4.52001953 49.00683594 C3.84788143 40.66988482 3.80515447 32.35670836 4 24 C7.92857754 22.14868517 10.98775112 21.77995057 15.3125 21.875 C16.38113281 21.89304688 17.44976562 21.91109375 18.55078125 21.9296875 C19.35902344 21.95289063 20.16726563 21.97609375 21 22 C21.0501123 22.83249268 21.10022461 23.66498535 21.15185547 24.52270508 C21.34227712 27.6150058 21.54073112 30.7066566 21.74462891 33.7980957 C21.87372111 35.79273943 21.99354798 37.78797574 22.11328125 39.78320312 C22.23896484 41.66362305 22.23896484 41.66362305 22.3671875 43.58203125 C22.44050293 44.73936768 22.51381836 45.8967041 22.58935547 47.08911133 C22.81216609 50.18736883 22.81216609 50.18736883 25 53 C26.89539635 53.44651472 26.89539635 53.44651472 29.0625 53.36328125 C29.85914063 53.36263672 30.65578125 53.36199219 31.4765625 53.36132812 C32.30929687 53.34521484 33.14203125 53.32910156 34 53.3125 C35.24910156 53.31733398 35.24910156 53.31733398 36.5234375 53.32226562 C41.26771673 53.52967138 41.26771673 53.52967138 45 51 C45.16681109 47.91652174 45.16681109 47.91652174 45 45 C43.55367188 45.10441406 43.55367188 45.10441406 42.078125 45.2109375 C40.81484375 45.26507813 39.5515625 45.31921875 38.25 45.375 C36.37054688 45.47941406 36.37054688 45.47941406 34.453125 45.5859375 C31 45 31 45 28.5625 42.71875 C25.92956187 37.93788866 26.5820793 32.41004408 26.75 27.125 C26.8325 23.45375 26.915 19.7825 27 16 C18.09 16 9.18 16 0 16 C0 10.72 0 5.44 0 0 Z " fill="#7A8B39" transform="translate(344,137)"/>
<path d="M0 0 C29.37 0 58.74 0 89 0 C89 5.28 89 10.56 89 16 C67.55 16.33 46.1 16.66 24 17 C27.96 20.3 31.92 23.6 36 27 C37.01654412 33.171875 37.01654412 33.171875 36 37 C35.78859375 37.84304687 35.5771875 38.68609375 35.359375 39.5546875 C33.47149984 42.95069282 30.75064187 44.17877589 27.375 45.8125 C26.45847656 46.27946289 26.45847656 46.27946289 25.5234375 46.75585938 C24.02268054 47.51796252 22.51223002 48.2609242 21 49 C21 49.99 21 50.98 21 52 C23.20611566 52.81898266 25.4145834 53.63027543 27.625 54.4375 C28.85476562 54.88996094 30.08453125 55.34242188 31.3515625 55.80859375 C35.3327419 57.20954079 35.3327419 57.20954079 41 58 C41 44.8 41 31.6 41 18 C59.26005241 16.47832897 74.18879432 20.29669386 88.6484375 32.17578125 C90.8677211 36.81318599 90.61630064 41.43008079 90.5625 46.5 C90.59827148 48.04880859 90.59827148 48.04880859 90.63476562 49.62890625 C90.62564751 54.33993258 90.52998216 57.17165002 87.953125 61.19921875 C84.26931133 63.44556544 81.35348418 63.56960334 77.1875 63.3125 C74.815625 63.209375 72.44375 63.10625 70 63 C70 57.06 70 51.12 70 45 C71.65 44.67 73.3 44.34 75 44 C75 42.35 75 40.7 75 39 C74.21625 38.9175 73.4325 38.835 72.625 38.75 C69 38 69 38 59 34 C59 48.85 59 63.7 59 79 C53.06 79 47.12 79 41 79 C40.505 75.535 40.505 75.535 40 72 C31.05398149 69.46048507 22.01196765 67.89947 12.83569336 66.44628906 C11.3836853 66.20797363 11.3836853 66.20797363 9.90234375 65.96484375 C9.03085693 65.8268335 8.15937012 65.68882324 7.26147461 65.54663086 C5 65 5 65 2 63 C1.3376593 59.39534582 1.53704734 55.72074176 1.5625 52.0625 C1.54251953 51.04736328 1.52253906 50.03222656 1.50195312 48.98632812 C1.50291992 47.52549805 1.50291992 47.52549805 1.50390625 46.03515625 C1.50205322 45.1419165 1.5002002 44.24867676 1.49829102 43.32836914 C2 41 2 41 3.8425293 39.24462891 C6.5773385 37.66693769 9.17613515 37.01414306 12.25 36.3125 C13.32765625 36.06113281 14.4053125 35.80976563 15.515625 35.55078125 C16.33546875 35.36902344 17.1553125 35.18726563 18 35 C18 34.34 18 33.68 18 33 C15.78581383 31.1084693 13.56433016 29.32350321 11.25 27.5625 C10.61578125 27.07201172 9.9815625 26.58152344 9.328125 26.07617188 C6.23794626 23.69094016 3.12306457 21.34229842 0 19 C0 12.73 0 6.46 0 0 Z " fill="#7B8B39" transform="translate(147,136)"/>
<path d="M0 0 C0 7.59 0 15.18 0 23 C-8.27141007 25.13001711 -16.52011208 27.17153738 -24.89453125 28.8515625 C-25.99521439 29.07244537 -25.99521439 29.07244537 -27.11813354 29.29779053 C-30.11978258 29.89661525 -33.12248335 30.48986537 -36.1262207 31.078125 C-38.36267633 31.51769523 -40.59738982 31.96537484 -42.83203125 32.4140625 C-43.51006302 32.54430817 -44.18809479 32.67455383 -44.88667297 32.80874634 C-48.16531274 33.47133701 -50.16953345 34.1130223 -53 36 C-53.46096208 37.96423753 -53.46096208 37.96423753 -53.39872742 40.26467896 C-53.41126556 41.15932861 -53.42380371 42.05397827 -53.4367218 42.97573853 C-53.43528671 43.95972626 -53.43385162 44.94371399 -53.43237305 45.95751953 C-53.4425647 46.99169006 -53.45275635 48.0258606 -53.46325684 49.09136963 C-53.49353756 52.52190461 -53.50267587 55.95216109 -53.51171875 59.3828125 C-53.52855424 61.7565098 -53.54670292 64.13019812 -53.56611633 66.50387573 C-53.61374506 72.76085607 -53.64347113 79.01780004 -53.66955566 85.27490234 C-53.69929634 91.6559976 -53.74584886 98.03696733 -53.79101562 104.41796875 C-53.87719527 116.94526151 -53.94292226 129.4725408 -54 142 C-62.25 142 -70.5 142 -79 142 C-79.06782427 128.05672033 -79.12284435 114.11355055 -79.15543652 100.17014313 C-79.17108049 93.69539756 -79.19229596 87.22077089 -79.22631836 80.74609375 C-79.2589565 74.49560886 -79.27686256 68.24523822 -79.28463173 61.99467468 C-79.29016719 59.61209821 -79.30097658 57.22952786 -79.31719017 54.84700012 C-79.33902316 51.50528538 -79.3419644 48.16404042 -79.34057617 44.82226562 C-79.351362 43.84114807 -79.36214783 42.86003052 -79.3732605 41.84918213 C-79.33651814 33.65496306 -77.67456504 26.76547548 -71.82861328 20.7109375 C-63.96596331 13.35426847 -53.25597376 11.80505997 -43.125 9.5 C-40.62551671 8.91637004 -38.12710684 8.32829189 -35.62872314 7.73997498 C-33.99526779 7.35569976 -32.3614409 6.97300017 -30.72723389 6.5919342 C-23.88050659 4.99140227 -17.08329445 3.23324685 -10.31689453 1.3203125 C-6.62447106 0.30423359 -3.92434394 0 0 0 Z " fill="#7A8B39" transform="translate(326,229)"/>
<path d="M0 0 C0.85428589 -0.00428513 1.70857178 -0.00857025 2.58874512 -0.01298523 C4.39427809 -0.01872621 6.1998342 -0.01923049 8.00537109 -0.01489258 C10.77090773 -0.01173057 13.53537674 -0.03520102 16.30078125 -0.06054688 C18.05468615 -0.06281965 19.80859393 -0.06352346 21.5625 -0.0625 C22.39068237 -0.07170975 23.21886475 -0.08091949 24.07214355 -0.09040833 C29.78896635 -0.04421698 29.78896635 -0.04421698 31.99905396 1.50463867 C33.71604424 3.90985539 33.66177081 5.46804222 33.66943359 8.41137695 C33.67889008 9.45288406 33.68834656 10.49439117 33.6980896 11.56745911 C33.69201691 12.69246323 33.68594421 13.81746735 33.6796875 14.9765625 C33.68255768 16.134478 33.68542786 17.29239349 33.68838501 18.48539734 C33.69042814 20.9374541 33.68488099 23.38952707 33.67236328 25.84155273 C33.65635757 29.58810131 33.67218198 33.33356387 33.69140625 37.08007812 C33.68942301 39.46224196 33.68557766 41.84440512 33.6796875 44.2265625 C33.68576019 45.34549393 33.69183289 46.46442535 33.6980896 47.61726379 C33.6386334 54.22503786 33.46195326 58.97613059 28.69152832 63.96244812 C23.1842944 68.78207145 18.32438362 69.15971622 11.2109375 69.02734375 C10.17107697 69.02834076 9.13121643 69.02933777 8.05984497 69.03036499 C5.872989 69.02570542 3.68612012 69.00637762 1.49951172 68.97314453 C-1.84114646 68.92581813 -5.17862126 68.93205297 -8.51953125 68.9453125 C-10.65106062 68.93416146 -12.78257662 68.91994327 -14.9140625 68.90234375 C-15.90793976 68.90416656 -16.90181702 68.90598938 -17.92581177 68.90786743 C-23.65072987 68.79110538 -27.29616724 68.30560401 -31.71875 64.30078125 C-35.41366787 59.90773828 -35.54750195 54.83040301 -36.10546875 49.3203125 C-36.21220413 48.35228195 -36.31893951 47.3842514 -36.4289093 46.3868866 C-36.65207884 44.34081414 -36.86941225 42.29409782 -37.08129883 40.24682617 C-37.40346193 37.14016693 -37.74406072 34.03596867 -38.08789062 30.93164062 C-38.30318027 28.93631597 -38.51740685 26.94087627 -38.73046875 24.9453125 C-38.83042648 24.02829056 -38.93038422 23.11126862 -39.03337097 22.16645813 C-39.64565494 16.18017786 -39.80450046 10.3185656 -39.71875 4.30078125 C-34.10875 4.30078125 -28.49875 4.30078125 -22.71875 4.30078125 C-21.21046279 13.36943697 -20.23733849 22.31718902 -19.65625 31.48828125 C-19.50253479 33.87785408 -19.3451787 36.26719643 -19.18359375 38.65625 C-19.117771 39.69418701 -19.05194824 40.73212402 -18.98413086 41.80151367 C-18.86673062 44.29671262 -18.86673062 44.29671262 -17.71875 46.30078125 C-13.07401018 46.37494192 -8.42961501 46.4293874 -3.78442383 46.46557617 C-2.20428464 46.48066219 -0.62418731 46.50113375 0.95581055 46.52709961 C3.22715585 46.56349251 5.49794759 46.58050887 7.76953125 46.59375 C8.47588211 46.60923386 9.18223297 46.62471771 9.9099884 46.64067078 C13.80781143 46.65452122 13.80781143 46.65452122 17.18823242 44.9074707 C19.78612271 41.08868223 19.53798087 37.40218382 19.59375 32.92578125 C19.62275391 32.1575 19.65175781 31.38921875 19.68164062 30.59765625 C19.72270665 26.94593935 19.67003041 24.9006936 17.6484375 21.78125 C14.60622187 19.87861019 12.65868697 19.86235778 9.09375 19.98828125 C8.02769531 20.01277344 6.96164062 20.03726562 5.86328125 20.0625 C3.35213335 20.01685255 3.35213335 20.01685255 2.28125 21.30078125 C2.04932135 22.81547573 1.86909762 24.33832687 1.71875 25.86328125 C1.63496094 26.68957031 1.55117188 27.51585937 1.46484375 28.3671875 C1.37396484 29.32431641 1.37396484 29.32431641 1.28125 30.30078125 C2.93125 30.30078125 4.58125 30.30078125 6.28125 30.30078125 C6.28125 28.32078125 6.28125 26.34078125 6.28125 24.30078125 C8.26125 24.30078125 10.24125 24.30078125 12.28125 24.30078125 C12.30809312 27.11334406 12.32801188 29.92565366 12.34375 32.73828125 C12.35212891 33.54072266 12.36050781 34.34316406 12.36914062 35.16992188 C12.3777643 37.21373346 12.3335315 39.25762027 12.28125 41.30078125 C10.62730883 42.95472242 8.67809587 42.43077808 6.40625 42.43359375 C5.42140625 42.43488281 4.4365625 42.43617188 3.421875 42.4375 C2.38546875 42.43363281 1.3490625 42.42976563 0.28125 42.42578125 C-1.27335937 42.43158203 -1.27335937 42.43158203 -2.859375 42.4375 C-3.84421875 42.43621094 -4.8290625 42.43492187 -5.84375 42.43359375 C-6.75382812 42.43246582 -7.66390625 42.43133789 -8.6015625 42.43017578 C-10.71875 42.30078125 -10.71875 42.30078125 -11.71875 41.30078125 C-11.84463911 38.43985574 -11.90742232 35.60438359 -11.921875 32.7421875 C-11.92757507 31.88270004 -11.93327515 31.02321259 -11.93914795 30.13768005 C-11.9486118 28.31600176 -11.95513741 26.49430624 -11.95898438 24.67260742 C-11.9686973 21.8784416 -11.99971008 19.08500883 -12.03125 16.29101562 C-12.03777895 14.52474397 -12.04302985 12.75846704 -12.046875 10.9921875 C-12.0592218 10.15256973 -12.0715686 9.31295197 -12.08428955 8.44789124 C-12.07519531 6.09204102 -12.07519531 6.09204102 -11.71875 2.30078125 C-7.82250984 -0.29671219 -4.52074379 -0.00497504 0 0 Z " fill="#798A37" transform="translate(389.71875,297.69921875)"/>
<path d="M0 0 C17.16 0 34.32 0 52 0 C52 25.74 52 51.48 52 78 C46.39 78 40.78 78 35 78 C34.34 76.35 33.68 74.7 33 73 C30.19991514 71.87846327 30.19991514 71.87846327 26.8203125 71.48828125 C25.58152344 71.28783203 24.34273438 71.08738281 23.06640625 70.88085938 C21.76574219 70.69330078 20.46507812 70.50574219 19.125 70.3125 C16.56428337 69.91805262 14.00434239 69.51852742 11.4453125 69.11328125 C10.30594238 68.94610596 9.16657227 68.77893066 7.99267578 68.60668945 C5 68 5 68 1 66 C1 53.79 1 41.58 1 29 C11.09966142 24.51126159 11.09966142 24.51126159 16.09375 22.9296875 C17.14304687 22.59066406 18.19234375 22.25164062 19.2734375 21.90234375 C21.45511207 21.20769434 23.63742249 20.51503924 25.8203125 19.82421875 C26.85929687 19.48777344 27.89828125 19.15132812 28.96875 18.8046875 C29.91169922 18.50546387 30.85464844 18.20624023 31.82617188 17.89794922 C34.1691416 17.20833125 34.1691416 17.20833125 35 15 C23.45 15 11.9 15 0 15 C0 10.05 0 5.1 0 0 Z " fill="#798A36" transform="translate(264,137)"/>
<path d="M0 0 C18.48 0 36.96 0 56 0 C56 23.76 56 47.52 56 72 C50.39 72 44.78 72 39 72 C39 64.41 39 56.82 39 49 C36.03 48.505 36.03 48.505 33 48 C32.0925 47.46375 31.185 46.9275 30.25 46.375 C25.69112994 44.44624728 21.78842872 45.06987356 17 46 C16.01 46.495 16.01 46.495 15 47 C14.52998967 50.27555608 14.52998967 50.27555608 14.375 54.0625 C14.30023438 55.35285156 14.22546875 56.64320313 14.1484375 57.97265625 C14.09945312 58.97167969 14.05046875 59.97070312 14 61 C15.98 61 17.96 61 20 61 C19.979375 60.030625 19.95875 59.06125 19.9375 58.0625 C20 55 20 55 21 54 C24.4375 53.8125 24.4375 53.8125 28 54 C30 56 30 56 30.1953125 58.8203125 C30.17210937 59.91085937 30.14890625 61.00140625 30.125 62.125 C30.10695312 63.22070312 30.08890625 64.31640625 30.0703125 65.4453125 C30.04710937 66.28835938 30.02390625 67.13140625 30 68 C29.37351563 68.20496094 28.74703125 68.40992188 28.1015625 68.62109375 C27.28429687 68.89050781 26.46703125 69.15992188 25.625 69.4375 C24.81289062 69.70433594 24.00078125 69.97117187 23.1640625 70.24609375 C20.98968201 70.95179729 20.98968201 70.95179729 19 72 C14.90842645 72.51512617 10.76410454 72.94367269 7.04296875 70.953125 C2.48000575 67.17841108 1.78254974 64.39839673 1.19189453 58.62939453 C0.85881414 54.06543035 0.89612497 49.51103167 0.9375 44.9375 C0.94426758 43.49600586 0.94426758 43.49600586 0.95117188 42.02539062 C0.96282294 39.68352578 0.97917975 37.34179819 1 35 C2.56808347 34.49690498 4.13896118 34.00251485 5.7109375 33.51171875 C6.58540527 33.23545654 7.45987305 32.95919434 8.36083984 32.67456055 C12.03359248 31.73581721 15.22800274 31.7904446 19 32 C18.67 30.68 18.34 29.36 18 28 C17.01257813 27.79503906 16.02515625 27.59007812 15.0078125 27.37890625 C13.72648438 27.10949219 12.44515625 26.84007812 11.125 26.5625 C9.84882813 26.29566406 8.57265625 26.02882813 7.2578125 25.75390625 C4 25 4 25 2 24 C2.495 19.545 2.495 19.545 3 15 C2.01 15 1.02 15 0 15 C0 10.05 0 5.1 0 0 Z " fill="#7B8C3A" transform="translate(169,231)"/>
<path d="M0 0 C18.48 0 36.96 0 56 0 C55.67 23.76 55.34 47.52 55 72 C47 73 47 73 38 73 C38 62.11 38 51.22 38 40 C26.36606201 35.96490538 26.36606201 35.96490538 15 38 C15 42.29 15 46.58 15 51 C16.65 51.33 18.3 51.66 20 52 C19.979375 51.030625 19.95875 50.06125 19.9375 49.0625 C20 46 20 46 21 45 C27.52542373 44.76271186 27.52542373 44.76271186 30 46 C30.05389087 47.95803507 30.09274217 49.91648909 30.125 51.875 C30.14820313 52.96554687 30.17140625 54.05609375 30.1953125 55.1796875 C30 58 30 58 28 60 C21.1875219 62.31367181 14.14480776 63.01526485 7 62 C3.15640827 59.4129671 3.15640827 59.4129671 2 56 C1.18881225 51.66108876 1.06786875 47.40694433 1 43 C0.94970271 41.48175472 0.89889994 39.96352613 0.84765625 38.4453125 C0.81220376 36.90110553 0.77961997 35.35682986 0.75 33.8125 C0.72832764 33.06959717 0.70665527 32.32669434 0.68432617 31.5612793 C0.671875 29.45703125 0.671875 29.45703125 1 26 C4.31172646 23.79218236 6.34938045 23.44648612 10.25 22.875 C11.34828125 22.70742187 12.4465625 22.53984375 13.578125 22.3671875 C20.78626169 21.59371165 25.17263026 22.06592325 31.4375 25.5 C32.07365234 25.83386719 32.70980469 26.16773438 33.36523438 26.51171875 C34.91693107 27.32840122 36.45947571 28.1624334 38 29 C38.33 24.38 38.66 19.76 39 15 C26.13 15 13.26 15 0 15 C0 10.05 0 5.1 0 0 Z " fill="#7B8C3A" transform="translate(111,231)"/>
<path d="M0 0 C5.28 0 10.56 0 16 0 C16 23.76 16 47.52 16 72 C11.05 72 6.1 72 1 72 C0.67 70.02 0.34 68.04 0 66 C-4.11947077 64.5389889 -8.119981 63.50845875 -12.421875 62.74609375 C-13.61167969 62.53146484 -14.80148438 62.31683594 -16.02734375 62.09570312 C-17.25582031 61.87849609 -18.48429687 61.66128906 -19.75 61.4375 C-22.20361446 61.00144313 -24.65676706 60.56277668 -27.109375 60.12109375 C-28.73311035 59.83383423 -28.73311035 59.83383423 -30.38964844 59.54077148 C-33 59 -33 59 -35 58 C-35.02465746 53.8882744 -35.04283959 49.77657722 -35.05493164 45.66479492 C-35.0599708 44.26504772 -35.06680216 42.8653058 -35.07543945 41.46557617 C-35.0875232 39.45754223 -35.09269807 37.44947043 -35.09765625 35.44140625 C-35.10289307 34.23170166 -35.10812988 33.02199707 -35.11352539 31.77563477 C-35 29 -35 29 -34 28 C-31.30345146 27.92680379 -28.63308542 27.90757463 -25.9375 27.9375 C-25.17888672 27.94201172 -24.42027344 27.94652344 -23.63867188 27.95117188 C-21.75908129 27.9629932 -19.87953101 27.98092922 -18 28 C-18.33 26.68 -18.66 25.36 -19 24 C-24.94 23.67 -30.88 23.34 -37 23 C-37 16.07 -37 9.14 -37 2 C-32.71 2 -28.42 2 -24 2 C-23.67 5.63 -23.34 9.26 -23 13 C-21.02 13 -19.04 13 -17 13 C-17.33 9.37 -17.66 5.74 -18 2 C-13.38 2 -8.76 2 -4 2 C-3.90476168 15.38627557 -3.87625321 28.65550681 -5 42 C-9.95 42 -14.9 42 -20 42 C-18.60483236 46.90522212 -18.60483236 46.90522212 -15.8984375 48.328125 C-15.06570312 48.63234375 -14.23296875 48.9365625 -13.375 49.25 C-12.14910156 49.72179687 -12.14910156 49.72179687 -10.8984375 50.203125 C-7.34830908 51.17917109 -3.65342616 51.54332173 0 52 C0 34.84 0 17.68 0 0 Z " fill="#7A8B38" transform="translate(70,231)"/>
<path d="M0 0 C7.26 0 14.52 0 22 0 C22 32.01 22 64.02 22 97 C14.74 97 7.48 97 0 97 C0 64.99 0 32.98 0 0 Z " fill="#7B8B39" transform="translate(430,274)"/>
<path d="M0 0 C5.94 0 11.88 0 18 0 C18.01458252 2.15490967 18.02916504 4.30981934 18.04418945 6.5300293 C18.09455651 13.65477759 18.16115529 20.77930782 18.23571491 27.90384197 C18.28041711 32.22290362 18.31967348 36.54187097 18.34643555 40.86108398 C18.37247016 45.03042164 18.41287344 49.19939641 18.46318626 53.36850929 C18.47985396 54.95804132 18.49136886 56.54763612 18.49761391 58.13724327 C18.50725634 60.36621394 18.53531548 62.59425648 18.56762695 64.82299805 C18.57873001 66.09096725 18.58983307 67.35893646 18.60127258 68.66532898 C19.02870086 72.24003343 19.83782599 74.15076001 22 77 C24.00588475 78.00934681 24.00588475 78.00934681 26.1875 78.3125 C27.445625 78.539375 28.70375 78.76625 30 79 C30 83.95 30 88.9 30 94 C13.90983607 94.61885246 13.90983607 94.61885246 8 90 C2.77647709 84.89255537 0.31518261 79.36120134 -0.36076355 72.15270996 C-0.369296 70.80689499 -0.36186131 69.46090807 -0.34057617 68.11523438 C-0.34123329 67.00157501 -0.34123329 67.00157501 -0.34190369 65.86541748 C-0.33983405 63.44124921 -0.31659111 61.01779559 -0.29296875 58.59375 C-0.28736627 56.90124896 -0.28309925 55.20874302 -0.28010559 53.51623535 C-0.26870812 49.08400801 -0.23928546 44.65208045 -0.20599365 40.2199707 C-0.17518225 35.68835504 -0.1615767 31.15669045 -0.14648438 26.625 C-0.11441027 17.74984779 -0.06168464 8.87499585 0 0 Z " fill="#7B8C3A" transform="translate(241,137)"/>
<path d="M0 0 C25.08 0 50.16 0 76 0 C76 6.6 76 13.2 76 20 C50.92 20 25.84 20 0 20 C0 13.4 0 6.8 0 0 Z " fill="#7B8C3A" transform="translate(349,274)"/>
<path d="M0 0 C5.94 0 11.88 0 18 0 C18 26.07 18 52.14 18 79 C12.06 79 6.12 79 0 79 C0 52.93 0 26.86 0 0 Z " fill="#7B8C3A" transform="translate(124,136)"/>
<path d="M0 0 C5.94 0 11.88 0 18 0 C18 25.74 18 51.48 18 78 C12.06 78 6.12 78 0 78 C0 52.26 0 26.52 0 0 Z " fill="#7A8B38" transform="translate(432,137)"/>
<path d="M0 0 C5.61 0 11.22 0 17 0 C17 25.74 17 51.48 17 78 C11.39 78 5.78 78 0 78 C0 52.26 0 26.52 0 0 Z " fill="#788935" transform="translate(322,137)"/>
<path d="M0 0 C5.28 0 10.56 0 16 0 C16 23.43 16 46.86 16 71 C10.72 71 5.44 71 0 71 C0 47.57 0 24.14 0 0 Z " fill="#798A37" transform="translate(90,232)"/>
<path d="M0 0 C21.78 0 43.56 0 66 0 C66 0.33 66 0.66 66 1 C50.16 1.33 34.32 1.66 18 2 C18 15.2 18 28.4 18 42 C7.875 40.875 7.875 40.875 2.4375 38.4375 C1.40496094 37.98246094 0.37242187 37.52742188 -0.69140625 37.05859375 C-1.83416016 36.53458984 -1.83416016 36.53458984 -3 36 C-2.90625 34.21875 -2.90625 34.21875 -2 32 C1.26206396 30.00067048 4.64355734 28.43134214 8.09375 26.78125 C11.06970135 25.33552775 11.06970135 25.33552775 11.85546875 23.0703125 C11.92701172 22.04550781 11.92701172 22.04550781 12 21 C12.17144531 20.26523438 12.34289062 19.53046875 12.51953125 18.7734375 C12.88236583 15.80303172 12.8749817 13.88785041 12 11 C9.08888246 7.91039059 6.03989074 5.4319974 2.625 2.93359375 C1.75875 2.29550781 0.8925 1.65742188 0 1 C0 0.67 0 0.34 0 0 Z " fill="#F5F6F0" transform="translate(170,152)"/>
<path d="M0 0 C0 7.26 0 14.52 0 22 C-5.75358957 21.2808013 -9.98870045 20.58860181 -15.3125 18.75 C-16.50488281 18.35296875 -17.69726562 17.9559375 -18.92578125 17.546875 C-22.40890097 15.79425059 -23.44472085 14.52419637 -25 11 C-25.3125 8.3125 -25.3125 8.3125 -25 6 C-22.1041665 3.1041665 -18.62566156 2.75435178 -14.75 1.875 C-13.99847656 1.69324219 -13.24695313 1.51148438 -12.47265625 1.32421875 C-8.03656644 0.29455043 -4.71438457 0 0 0 Z " fill="#FCFCFA" transform="translate(320,322)"/>
<path d="M0 0 C8.1010454 -0.41543823 13.70463624 0.45518117 21 4 C20.42978066 9.3503559 19.79265639 14.67787852 19 20 C18.38253906 19.79503906 17.76507813 19.59007812 17.12890625 19.37890625 C11.37289724 17.54784707 6.02021684 16.48550136 0 16 C0 10.72 0 5.44 0 0 Z " fill="#7C8C3B" transform="translate(296,365)"/>
<path d="M0 0 C0 5.94 0 11.88 0 18 C-9.0551817 16.86810229 -9.0551817 16.86810229 -13.375 15.0625 C-14.20773437 14.72347656 -15.04046875 14.38445312 -15.8984375 14.03515625 C-18 13 -18 13 -20 11 C-20.125 7.875 -20.125 7.875 -20 5 C-13.34079987 1.94786661 -7.4404623 0 0 0 Z " fill="#FAFAF7" transform="translate(298,175)"/>
<path d="M0 0 C6.83274127 -0.49692664 10.87460164 0.93730082 17 4 C16.34 7.96 15.68 11.92 15 16 C14.030625 15.690625 13.06125 15.38125 12.0625 15.0625 C7.76335509 13.82032903 3.44657366 13.38315147 -1 13 C-1.07654536 8.48382401 -1.10228696 4.40914783 0 0 Z " fill="#7D8D3D" transform="translate(279,210)"/>
<path d="M0 0 C6.93 0 13.86 0 21 0 C21 7.92 21 15.84 21 24 C16 22 16 22 13 20 C12.7791436 17.04935852 12.71939011 14.31631769 12.8125 11.375 C12.82603516 10.57320313 12.83957031 9.77140625 12.85351562 8.9453125 C12.88890949 6.96325622 12.94271766 4.98154449 13 3 C12.39671875 2.95101562 11.7934375 2.90203125 11.171875 2.8515625 C10.37265625 2.77679688 9.5734375 2.70203125 8.75 2.625 C7.96109375 2.55539063 7.1721875 2.48578125 6.359375 2.4140625 C4 2 4 2 0 0 Z " fill="#FCFCFB" transform="translate(187,246)"/>
<path d="M0 0 C8.25 0 16.5 0 25 0 C25 0.66 25 1.32 25 2 C17.00426443 5.68359299 8.20432828 4.5244087 0 2 C0 1.34 0 0.68 0 0 Z " fill="#F9FAF6" transform="translate(385,153)"/>
</svg>
